<svg xmlns="http://www.w3.org/2000/svg" version="1.1" xmlns:xlink="http://www.w3.org/1999/xlink" xmlns:svgjs="http://svgjs.dev/svgjs" width="1000" height="1000" viewBox="0 0 1000 1000"><rect width="1000" height="1000" fill="#ffffff"></rect><g transform="matrix(0.7,0,0,0.7,150.0000000000001,106.25)"><svg viewBox="0 0 320 360" data-background-color="#ffffff" preserveAspectRatio="xMidYMid meet" height="1125" width="1000" xmlns="http://www.w3.org/2000/svg" xmlns:xlink="http://www.w3.org/1999/xlink"><g id="tight-bounds" transform="matrix(1,0,0,1,0,0)"><svg viewBox="0 0 320 360" height="360" width="320"><g><svg></svg></g><g><svg viewBox="0 0 320 360" height="360" width="320"><g><path d="M20.961 227.22l3.726 4.658-1.863-6.056c-0.466-2.795-3.726 0.466-1.863 1.398M25.153 224.425c1.397 2.329 2.795 4.658 2.795 6.987 0 3.261 2.795 4.658 5.123 5.589-3.261-3.726-5.124-13.974-7.918-12.576M204.017 26.929c7.918 0 15.371-0.932 23.756 0.931 20.495 5.124 37.729 15.371 49.374 29.811l32.606 52.169c1.397 13.042 4.192 27.482 3.726 43.319 3.261 0 2.795-4.658 6.521-5.59-3.726 9.316-5.59 20.961-6.521 34.469-2.329-7.453 0-18.632 0.466-24.687-3.261 5.124-5.124 1.397-5.124-0.932 0.466-3.726-1.397-3.261-2.795-4.658-5.124-4.658-8.384-9.782-12.11-17.7 2.329-6.055 2.795-14.905-4.658-19.563-2.329-1.397-5.124-3.726-6.521-7.453-1.863-5.124-5.124-11.179-4.193-19.097 0.466-2.329-6.987 5.124-11.179 1.863-18.166-12.576-36.332-27.016-58.224-39.127-11.645 0-20.029-4.192-24.221-9.316-3.726-4.658-0.932-10.713 4.658-11.179 3.261 0 6.987-0.932 9.782 0.932 0.466-1.863 2.329-4.192 4.657-4.192M157.904 16.215l0.932 0.466c4.658 0.932 6.987 7.453 12.11 5.124 0 3.261 0.466 6.521-0.466 8.85-1.397 3.726-5.59 3.726-8.85 3.726-31.208-1.863-49.374 11.179-68.471 22.358-5.124 3.261-10.713 5.59-14.906 9.782-20.029 18.632-41.921 35.866-47.045 70.335l-4.192 38.195c-0.466 4.192-5.124 8.384-4.192 13.508l3.26 22.824c-3.261-3.261-5.124 0.932-4.192 2.795 0.466 1.397 2.329 6.055 5.124 1.863 3.726 6.987 7.453 20.495 12.576 26.55 15.837 18.632 36.332 35.4 53.101 52.169 4.192-0.932 7.453-0.932 8.384-3.727 1.397 2.795-1.397 5.59-3.726 6.056 7.453 4.658 15.837 8.85 27.016 9.781 14.44 0.932 27.948 3.261 40.524 6.522 6.521-1.863 13.042-2.795 20.029-3.261 2.329 0 3.726-3.726 6.521-4.658l0.466-4.658c2.795 4.192 2.329-1.397 0.466-4.192 3.261 2.795 4.192 5.124 5.589 6.987 0-1.397 3.726-6.521 3.727-0.466l0.931-6.055c1.397-0.932 1.863 5.124 3.261 0.931 1.397-4.192 4.192-0.932 6.987-2.329-0.932 1.863-0.466 5.59 2.794 3.261l3.727-3.261c2.329 5.59 6.055 3.261 7.918 2.329 20.495-13.042 40.99-28.413 60.553-43.784l-0.466 6.055 2.329-7.453c2.329 2.329 4.192 0.466 5.124-0.931 2.795-4.658 6.521-9.316 12.577-13.508-7.453 20.029-16.303 35.866-27.482 48.908l-4.658 5.59c0 3.261-0.932 7.453-4.658 7.918-1.863 0.466-5.59-0.932-8.384 1.863-1.397 1.863 3.261 5.59-0.466 2.795-3.261-2.329-6.521 0-10.248 0.932-2.795 0.932 1.863 3.726 2.795 5.589 0.932 1.863 1.863 3.726 1.398 6.056l-5.124-5.59c-6.055 3.261-9.782 9.316-14.906 13.974-2.329 1.863-1.397 5.124-1.397 7.918-3.261 0-6.987-0.932-8.85 0.932-1.397 1.863-0.932 4.658-0.932 7.453-4.658-0.466-5.124-7.453-9.315-6.056-4.192 0.932-8.85 1.397-12.577 3.727 2.795 5.59-4.658 2.329-3.726 3.26-6.987-4.192-13.042-7.453-20.495-4.658-15.837-5.124-35.4-2.795-49.84-0.931 0-2.329 0.466-4.658-0.466-5.124-0.932 2.329-3.726 1.397-3.26 1.397-8.85-6.055-17.7-9.782-27.016-14.905-8.384 0.932-16.303-3.261-18.632-5.59-6.521-6.055-13.974-2.795-20.029-4.192-13.042-3.261-17.7-16.769-19.098-26.084-0.932-4.658-4.658-6.521-6.055-6.056-6.055-19.563-15.371-37.263-22.824-55.429-1.863-4.658-1.397-9.316-1.397-14.44 2.329 0.932 4.658 0.466 4.192-2.794-2.329-15.371-7.918-27.016-13.974-38.195 3.261-15.837 3.726-34.469 11.179-48.443 6.521-12.576 18.632-19.098 27.016-29.811 2.795-3.726 2.795-8.85 5.59-12.11 9.316-9.316 18.632-19.098 28.879-27.482 4.658-3.726 10.247 0 17.234-1.397 2.329-8.384 11.645-15.837 20.495-13.508 3.726 0.932 11.179-8.85 13.508-9.782 3.726-1.397 1.863 3.726 1.863 6.987 8.85-6.987 20.961-10.713 32.14-14.906" fill="#233565" fill-rule="nonzero" stroke="none" stroke-width="1" stroke-linecap="butt" stroke-linejoin="miter" stroke-miterlimit="10" stroke-dasharray="" stroke-dashoffset="0" font-family="none" font-weight="none" font-size="none" text-anchor="none" style="mix-blend-mode: normal" data-fill-palette-color="tertiary"></path></g><g transform="matrix(1,0,0,1,74.88646022921698,90)"><svg viewBox="0 0 170.22707954156604 180" height="180" width="170.22707954156604"><g><svg viewBox="0 0 170.22707954156604 180" height="180" width="170.22707954156604"><g><svg viewBox="0 0 192 203.0229273337274" height="180" width="170.22707954156604"><g><svg viewBox="0 0 192 203.0229273337274" height="203.0229273337274" width="192"><g><svg viewBox="0 0 192 203.0229273337274" height="203.0229273337274" width="192"><g><svg viewBox="0 0 192 152.50165016501649" height="152.50165016501649" width="192"><g transform="matrix(1,0,0,1,0,0)"><svg width="192" viewBox="3.85 -35.5 45.449999999999996 36.1" height="152.50165016501649" data-palette-color="#233565"><path d="M21.85 0L3.85 0 3.85-34.9 9.15-34.9 9.15-4.65 21.85-4.65 21.85 0ZM37.7 0.6L37.7 0.6Q34.65 0.6 32.22-0.43 29.8-1.45 28.07-3.65 26.35-5.85 25.42-9.28 24.5-12.7 24.5-17.45L24.5-17.45Q24.5-22.2 25.42-25.63 26.35-29.05 28.07-31.25 29.8-33.45 32.22-34.48 34.65-35.5 37.7-35.5L37.7-35.5Q42.15-35.5 44.82-33.58 47.5-31.65 49.1-27.8L49.1-27.8 44.6-25.3Q43.7-28.25 42.07-29.55 40.45-30.85 37.7-30.85L37.7-30.85Q34.15-30.85 32.17-28.4 30.2-25.95 30.2-21.65L30.2-21.65 30.2-13.25Q30.2-8.95 32.17-6.5 34.15-4.05 37.7-4.05L37.7-4.05Q40.5-4.05 42.22-5.45 43.95-6.85 44.9-9.95L44.9-9.95 49.3-7.35Q47.65-3.5 44.9-1.45 42.15 0.6 37.7 0.6Z" opacity="1" transform="matrix(1,0,0,1,0,0)" fill="#000000" class="undefined-text-0" data-fill-palette-color="primary" id="text-0"></path></svg></g></svg></g><g transform="matrix(1,0,0,1,0,174.75530096369636)"><svg viewBox="0 0 192 28.267626370031078" height="28.267626370031078" width="192"><g transform="matrix(1,0,0,1,0,0)"><svg width="192" viewBox="4.35 -35.5 305.63 45" height="28.267626370031078" data-palette-color="#233565"><path d="M17.1 0L5.5 0Q4.95 0 4.65-0.33 4.35-0.65 4.35-1.15L4.35-1.15 4.35-33.8Q4.35-34.35 4.65-34.68 4.95-35 5.5-35L5.5-35 16.85-35Q22-35 25.15-33.45 28.3-31.9 29.75-28.88 31.2-25.85 31.25-21.45L31.25-21.45Q31.3-19.2 31.3-17.5 31.3-15.8 31.25-13.6L31.25-13.6Q31.15-9 29.73-5.98 28.3-2.95 25.23-1.48 22.15 0 17.1 0L17.1 0ZM9.25-30.75L9.25-4.25 16.85-4.25Q20.3-4.25 22.35-5.2 24.4-6.15 25.33-8.25 26.25-10.35 26.3-13.8L26.3-13.8Q26.4-15.3 26.4-16.43 26.4-17.55 26.4-18.68 26.4-19.8 26.3-21.25L26.3-21.25Q26.2-26.1 24-28.43 21.8-30.75 16.6-30.75L16.6-30.75 9.25-30.75ZM48.55 0.5L48.55 0.5Q43.35 0.5 40.3-2.68 37.25-5.85 36.95-11.35L36.95-11.35Q36.9-12 36.9-13.03 36.9-14.05 36.95-14.7L36.95-14.7Q37.15-18.25 38.6-20.93 40.05-23.6 42.57-25.05 45.1-26.5 48.5-26.5L48.5-26.5Q52.3-26.5 54.87-24.9 57.45-23.3 58.8-20.35 60.15-17.4 60.15-13.45L60.15-13.45 60.15-12.6Q60.15-12.05 59.82-11.75 59.5-11.45 59-11.45L59-11.45 41.7-11.45Q41.7-11.4 41.7-11.25 41.7-11.1 41.7-11L41.7-11Q41.8-8.95 42.6-7.18 43.4-5.4 44.92-4.3 46.45-3.2 48.5-3.2L48.5-3.2Q50.3-3.2 51.5-3.75 52.7-4.3 53.45-4.98 54.2-5.65 54.45-6.05L54.45-6.05Q54.9-6.65 55.15-6.78 55.4-6.9 55.95-6.9L55.95-6.9 58.4-6.9Q58.85-6.9 59.17-6.63 59.5-6.35 59.45-5.85L59.45-5.85Q59.4-5.1 58.65-4.03 57.9-2.95 56.52-1.9 55.15-0.85 53.12-0.18 51.1 0.5 48.55 0.5ZM41.7-15.05L41.7-14.9 55.4-14.9 55.4-15.05Q55.4-17.3 54.57-19.05 53.75-20.8 52.2-21.83 50.65-22.85 48.5-22.85L48.5-22.85Q46.35-22.85 44.82-21.83 43.3-20.8 42.5-19.05 41.7-17.3 41.7-15.05L41.7-15.05ZM77.35 0L75.2 0Q74.45 0 74.02-0.35 73.6-0.7 73.35-1.25L73.35-1.25 64.1-24.45Q64-24.7 64-24.95L64-24.95Q64-25.4 64.3-25.7 64.6-26 65.05-26L65.05-26 67.45-26Q68-26 68.3-25.7 68.6-25.4 68.7-25.15L68.7-25.15 76.3-5.45 83.9-25.15Q84-25.4 84.27-25.7 84.55-26 85.1-26L85.1-26 87.55-26Q87.95-26 88.27-25.7 88.6-25.4 88.6-24.95L88.6-24.95Q88.6-24.7 88.5-24.45L88.5-24.45 79.2-1.25Q79-0.7 78.57-0.35 78.15 0 77.35 0L77.35 0ZM104.24 0.5L104.24 0.5Q99.04 0.5 95.99-2.68 92.94-5.85 92.64-11.35L92.64-11.35Q92.59-12 92.59-13.03 92.59-14.05 92.64-14.7L92.64-14.7Q92.84-18.25 94.29-20.93 95.74-23.6 98.27-25.05 100.79-26.5 104.19-26.5L104.19-26.5Q107.99-26.5 110.57-24.9 113.14-23.3 114.49-20.35 115.84-17.4 115.84-13.45L115.84-13.45 115.84-12.6Q115.84-12.05 115.52-11.75 115.19-11.45 114.69-11.45L114.69-11.45 97.39-11.45Q97.39-11.4 97.39-11.25 97.39-11.1 97.39-11L97.39-11Q97.49-8.95 98.29-7.18 99.09-5.4 100.62-4.3 102.14-3.2 104.19-3.2L104.19-3.2Q105.99-3.2 107.19-3.75 108.39-4.3 109.14-4.98 109.89-5.65 110.14-6.05L110.14-6.05Q110.59-6.65 110.84-6.78 111.09-6.9 111.64-6.9L111.64-6.9 114.09-6.9Q114.54-6.9 114.87-6.63 115.19-6.35 115.14-5.85L115.14-5.85Q115.09-5.1 114.34-4.03 113.59-2.95 112.22-1.9 110.84-0.85 108.82-0.18 106.79 0.5 104.24 0.5ZM97.39-15.05L97.39-14.9 111.09-14.9 111.09-15.05Q111.09-17.3 110.27-19.05 109.44-20.8 107.89-21.83 106.34-22.85 104.19-22.85L104.19-22.85Q102.04-22.85 100.52-21.83 98.99-20.8 98.19-19.05 97.39-17.3 97.39-15.05L97.39-15.05ZM125.39 0L123.04 0Q122.54 0 122.22-0.33 121.89-0.65 121.89-1.15L121.89-1.15 121.89-34.35Q121.89-34.85 122.22-35.18 122.54-35.5 123.04-35.5L123.04-35.5 125.39-35.5Q125.94-35.5 126.24-35.18 126.54-34.85 126.54-34.35L126.54-34.35 126.54-1.15Q126.54-0.65 126.24-0.33 125.94 0 125.39 0L125.39 0ZM144.64 0.5L144.64 0.5Q140.84 0.5 138.29-0.95 135.74-2.4 134.39-4.98 133.04-7.55 132.89-10.85L132.89-10.85Q132.84-11.7 132.84-13.03 132.84-14.35 132.89-15.15L132.89-15.15Q133.04-18.5 134.41-21.05 135.79-23.6 138.34-25.05 140.89-26.5 144.64-26.5L144.64-26.5Q148.39-26.5 150.94-25.05 153.49-23.6 154.86-21.05 156.24-18.5 156.39-15.15L156.39-15.15Q156.44-14.35 156.44-13.03 156.44-11.7 156.39-10.85L156.39-10.85Q156.24-7.55 154.89-4.98 153.54-2.4 150.99-0.95 148.44 0.5 144.64 0.5ZM144.64-3.35L144.64-3.35Q147.74-3.35 149.59-5.33 151.44-7.3 151.59-11.1L151.59-11.1Q151.64-11.85 151.64-13 151.64-14.15 151.59-14.9L151.59-14.9Q151.44-18.7 149.59-20.68 147.74-22.65 144.64-22.65L144.64-22.65Q141.54-22.65 139.66-20.68 137.79-18.7 137.69-14.9L137.69-14.9Q137.64-14.15 137.64-13 137.64-11.85 137.69-11.1L137.69-11.1Q137.79-7.3 139.66-5.33 141.54-3.35 144.64-3.35ZM166.34 9.5L163.89 9.5Q163.39 9.5 163.06 9.18 162.74 8.85 162.74 8.35L162.74 8.35 162.74-24.85Q162.74-25.35 163.06-25.68 163.39-26 163.89-26L163.89-26 166.19-26Q166.69-26 167.01-25.68 167.34-25.35 167.34-24.85L167.34-24.85 167.34-22.65Q168.54-24.3 170.54-25.4 172.54-26.5 175.54-26.5L175.54-26.5Q178.34-26.5 180.31-25.55 182.29-24.6 183.56-22.95 184.84-21.3 185.49-19.2 186.14-17.1 186.24-14.7L186.24-14.7Q186.29-13.9 186.29-13 186.29-12.1 186.24-11.3L186.24-11.3Q186.14-8.95 185.49-6.83 184.84-4.7 183.56-3.08 182.29-1.45 180.31-0.48 178.34 0.5 175.54 0.5L175.54 0.5Q172.64 0.5 170.66-0.58 168.69-1.65 167.44-3.25L167.44-3.25 167.44 8.35Q167.44 8.85 167.14 9.18 166.84 9.5 166.34 9.5L166.34 9.5ZM174.49-3.55L174.49-3.55Q177.09-3.55 178.56-4.67 180.04-5.8 180.69-7.63 181.34-9.45 181.44-11.55L181.44-11.55Q181.49-13 181.44-14.45L181.44-14.45Q181.34-16.55 180.69-18.38 180.04-20.2 178.56-21.33 177.09-22.45 174.49-22.45L174.49-22.45Q172.04-22.45 170.51-21.3 168.99-20.15 168.26-18.38 167.54-16.6 167.44-14.75L167.44-14.75Q167.39-13.95 167.39-12.85 167.39-11.75 167.44-10.9L167.44-10.9Q167.49-9.15 168.26-7.45 169.04-5.75 170.59-4.65 172.14-3.55 174.49-3.55ZM196.03 0L193.63 0Q193.13 0 192.81-0.33 192.48-0.65 192.48-1.15L192.48-1.15 192.48-24.85Q192.48-25.35 192.81-25.68 193.13-26 193.63-26L193.63-26 195.88-26Q196.38-26 196.71-25.68 197.03-25.35 197.03-24.85L197.03-24.85 197.03-23.1Q198.18-24.65 199.93-25.58 201.68-26.5 204.13-26.5L204.13-26.5Q209.78-26.55 212.13-21.9L212.13-21.9Q213.28-24 215.48-25.25 217.68-26.5 220.48-26.5L220.48-26.5Q223.08-26.5 225.21-25.3 227.33-24.1 228.56-21.68 229.78-19.25 229.78-15.6L229.78-15.6 229.78-1.15Q229.78-0.65 229.46-0.33 229.13 0 228.63 0L228.63 0 226.28 0Q225.78 0 225.46-0.33 225.13-0.65 225.13-1.15L225.13-1.15 225.13-15.15Q225.13-17.95 224.33-19.55 223.53-21.15 222.18-21.8 220.83-22.45 219.23-22.45L219.23-22.45Q217.93-22.45 216.58-21.8 215.23-21.15 214.36-19.55 213.48-17.95 213.48-15.15L213.48-15.15 213.48-1.15Q213.48-0.65 213.16-0.33 212.83 0 212.33 0L212.33 0 209.98 0Q209.48 0 209.16-0.33 208.83-0.65 208.83-1.15L208.83-1.15 208.83-15.15Q208.83-17.95 207.98-19.55 207.13-21.15 205.78-21.8 204.43-22.45 202.93-22.45L202.93-22.45Q201.63-22.45 200.28-21.8 198.93-21.15 198.06-19.55 197.18-17.95 197.18-15.2L197.18-15.2 197.18-1.15Q197.18-0.65 196.86-0.33 196.53 0 196.03 0L196.03 0ZM247.33 0.5L247.33 0.5Q242.13 0.5 239.08-2.68 236.03-5.85 235.73-11.35L235.73-11.35Q235.68-12 235.68-13.03 235.68-14.05 235.73-14.7L235.73-14.7Q235.93-18.25 237.38-20.93 238.83-23.6 241.36-25.05 243.88-26.5 247.28-26.5L247.28-26.5Q251.08-26.5 253.66-24.9 256.23-23.3 257.58-20.35 258.93-17.4 258.93-13.45L258.93-13.45 258.93-12.6Q258.93-12.05 258.61-11.75 258.28-11.45 257.78-11.45L257.78-11.45 240.48-11.45Q240.48-11.4 240.48-11.25 240.48-11.1 240.48-11L240.48-11Q240.58-8.95 241.38-7.18 242.18-5.4 243.71-4.3 245.23-3.2 247.28-3.2L247.28-3.2Q249.08-3.2 250.28-3.75 251.48-4.3 252.23-4.98 252.98-5.65 253.23-6.05L253.23-6.05Q253.68-6.65 253.93-6.78 254.18-6.9 254.73-6.9L254.73-6.9 257.18-6.9Q257.63-6.9 257.96-6.63 258.28-6.35 258.23-5.85L258.23-5.85Q258.18-5.1 257.43-4.03 256.68-2.95 255.31-1.9 253.93-0.85 251.91-0.18 249.88 0.5 247.33 0.5ZM240.48-15.05L240.48-14.9 254.18-14.9 254.18-15.05Q254.18-17.3 253.36-19.05 252.53-20.8 250.98-21.83 249.43-22.85 247.28-22.85L247.28-22.85Q245.13-22.85 243.61-21.83 242.08-20.8 241.28-19.05 240.48-17.3 240.48-15.05L240.48-15.05ZM268.58 0L266.08 0Q265.58 0 265.25-0.33 264.93-0.65 264.93-1.15L264.93-1.15 264.93-24.85Q264.93-25.35 265.25-25.68 265.58-26 266.08-26L266.08-26 268.43-26Q268.93-26 269.25-25.68 269.58-25.35 269.58-24.85L269.58-24.85 269.58-22.65Q270.88-24.35 272.85-25.43 274.83-26.5 277.93-26.5L277.93-26.5Q281.18-26.5 283.45-25.08 285.73-23.65 286.9-21.13 288.08-18.6 288.08-15.25L288.08-15.25 288.08-1.15Q288.08-0.65 287.75-0.33 287.43 0 286.93 0L286.93 0 284.43 0Q283.93 0 283.6-0.33 283.28-0.65 283.28-1.15L283.28-1.15 283.28-15Q283.28-18.5 281.58-20.48 279.88-22.45 276.58-22.45L276.58-22.45Q273.48-22.45 271.6-20.48 269.73-18.5 269.73-15L269.73-15 269.73-1.15Q269.73-0.65 269.4-0.33 269.08 0 268.58 0L268.58 0ZM308.83 0L305.38 0Q302.58 0 300.83-1.07 299.08-2.15 298.28-4.13 297.48-6.1 297.48-8.8L297.48-8.8 297.48-22 293.58-22Q293.08-22 292.75-22.33 292.43-22.65 292.43-23.15L292.43-23.15 292.43-24.85Q292.43-25.35 292.75-25.68 293.08-26 293.58-26L293.58-26 297.48-26 297.48-34.35Q297.48-34.85 297.8-35.18 298.13-35.5 298.63-35.5L298.63-35.5 300.98-35.5Q301.48-35.5 301.8-35.18 302.13-34.85 302.13-34.35L302.13-34.35 302.13-26 308.33-26Q308.88-26 309.18-25.68 309.48-25.35 309.48-24.85L309.48-24.85 309.48-23.15Q309.48-22.65 309.18-22.33 308.88-22 308.33-22L308.33-22 302.13-22 302.13-9.15Q302.13-6.8 302.93-5.45 303.73-4.1 305.78-4.1L305.78-4.1 308.83-4.1Q309.33-4.1 309.65-3.78 309.98-3.45 309.98-2.95L309.98-2.95 309.98-1.15Q309.98-0.65 309.65-0.33 309.33 0 308.83 0L308.83 0Z" opacity="1" transform="matrix(1,0,0,1,0,0)" fill="#000000" class="undefined-text-1" data-fill-palette-color="secondary" id="text-1"></path></svg></g></svg></g></svg></g></svg></g><g></g></svg></g></svg></g></svg></g></svg></g><defs></defs></svg><rect width="320" height="360" fill="none" stroke="none" visibility="hidden"></rect></g></svg></g></svg>